<?xml version="1.0" encoding="utf-8"?>
<!-- Generator: Adobe Illustrator 19.2.1, SVG Export Plug-In . SVG Version: 6.00 Build 0)  -->
<svg version="1.1" id="layer" xmlns="http://www.w3.org/2000/svg" xmlns:xlink="http://www.w3.org/1999/xlink" x="0px" y="0px"
	 viewBox="0 0 652 652" style="enable-background:new 0 0 652 652;" xml:space="preserve">
<style type="text/css">
	.st0{fill-rule:evenodd;clip-rule:evenodd;fill:#51A7B0;}
	.st1{fill-rule:evenodd;clip-rule:evenodd;fill:#A9805E;}
	.st2{fill-rule:evenodd;clip-rule:evenodd;fill:#7A4631;}
	.st3{fill:#DC6039;}
	.st4{fill:#51A7B0;}
	.st5{fill:#7A4631;}
</style>
<path class="st0" d="M566.1,267.9c0.2-16.4-1.4-30.5-14.2-35.4c-3.2,7.2-2.6,11.7,0.7,19.9C558,265.9,554,265,566.1,267.9
	 M272.4,546c-22.8-4.6-43.4-16.1-58.3-28.1c-13.8-11-33.5-25.2-43.8-37.6c-23.4-28-45.3-67.5-54.1-110.9
	c-11.8-58.1,2.6-93.7,18.7-139.7c10.7-30.6,42-79,72.5-92c5.4-8.6,53.2-27.9,60.2-29.7c99.4-25.2,167.9-6.5,238,61.3
	c9.7,9.4,8.2,9.5,14.2,18.3c16.2,23.9,16.1,34.1,26.2,39.4c8.9-9.8-0.5-19.8-6.5-29.4c-19.4-31.5-23.5-30.4-43.5-51.3
	c-42-44.1-109-67.6-172.3-67.6C169.3,79,42,238.8,92.2,401.3c14.4,46.7,39,83.5,80.9,111.6c10.2,6.8,11.4,12.9,25.9,20.1
	c12.6,6.2,19.8,10.3,32.1,16.8c17.3,9.2,51.8,19,73.9,20.6c58.1,4.1,79.3-8.2,124.6-19c7.9-1.9,19.2-4.9,22.5-12.7
	c9.8-23.2-30.2,1.9-38.3,5.1C390.1,553.3,309.1,563.3,272.4,546z"/>
<path class="st1" d="M566.4,260.3c0.2-16.4-1.4-30.5-14.2-35.4c-3.2,7.2-2.6,11.7,0.7,19.9C558.3,258.2,554.2,257.3,566.4,260.3
	 M272.7,538.4c-22.8-4.6-43.4-16.1-58.3-28.1c-13.8-11-33.5-25.2-43.8-37.6c-23.4-28-45.3-67.5-54.1-110.9
	c-11.8-58.1,2.6-93.7,18.7-139.7c10.7-30.6,42-79,72.5-92c5.4-8.6,53.2-27.9,60.2-29.7c99.4-25.2,167.9-6.5,238,61.3
	c9.7,9.4,8.2,9.5,14.2,18.3c16.2,23.9,16.1,34.1,26.2,39.4c8.9-9.8-0.5-19.8-6.5-29.4c-19.4-31.5-23.5-30.4-43.5-51.3
	c-42-44.1-109-67.6-172.3-67.6c-154.6,0.2-281.9,160-231.8,322.5c14.4,46.7,39,83.5,80.9,111.6c10.2,6.8,11.4,12.9,25.9,20.1
	c12.6,6.2,19.8,10.3,32,16.8c17.3,9.2,51.8,19,73.9,20.6c58.1,4.1,79.3-8.2,124.6-19c7.9-1.9,19.2-4.9,22.5-12.7
	c9.8-23.2-30.2,1.9-38.3,5.1C390.3,545.7,309.4,555.6,272.7,538.4z"/>
<path class="st2" d="M566.1,260.2c-0.5-13-3.4-23.6-14.2-27.7c-0.7,1.6-1.2,3-1.6,4.4c0.4,2.3,1.3,4.8,2.5,7.8
	C558.2,258.1,554.3,257.4,566.1,260.2 M112.1,319.7c0.3-35.6,11.2-63.8,23-97.5c10.7-30.6,42-79,72.5-92
	c5.4-8.6,53.2-27.9,60.2-29.7c99.4-25.2,167.9-6.5,238,61.3c9.7,9.4,8.2,9.5,14.2,18.3c16.2,23.9,16.1,34.1,26.2,39.4
	c1.4-1.6,2.4-3.1,2.9-4.7c-1.5-5.8-6.2-11.5-9.6-17.2c-19.4-31.5-23.5-30.4-43.5-51.3c-42-44.1-109-67.6-172.3-67.6
	C196.3,78.9,87.3,187.9,81.3,317.4c-0.4,25,3.1,50.6,11.1,76.3c14.4,46.7,39,83.5,80.9,111.6c10.2,6.8,11.4,12.9,25.9,20.1
	c12.6,6.2,19.8,10.3,32,16.8c17.3,9.2,51.8,19,73.9,20.6c58.1,4.1,79.3-8.2,124.6-19c7.9-1.9,19.2-4.9,22.5-12.7
	c0.1-0.3,0.3-0.7,0.4-1c-5.3-5.6-32.4,11.1-38.9,13.7c-23.7,9.5-104.6,19.5-141.3,2.2c-22.8-4.6-43.4-16.1-58.3-28.1
	c-13.8-11-33.5-25.2-43.8-37.6c-23.4-28-45.3-67.5-54.1-110.9C112.4,350.9,111.3,334.7,112.1,319.7z"/>
<path class="st3" d="M395.8,244.4c0-10.5-1-18.6-2.8-24.1c-1.9-5.5-4.9-8.3-9.1-8.3c-5.9,0-10.1,2.6-12.5,7.9
	c-2.4,5.3-3.6,13.5-3.6,24.6H395.8z M367.7,246.4c0,11.7,1.4,20.2,4.2,25.4c2.8,5.2,7,7.9,12.6,7.9c6,0,11.3-2,15.8-6.1
	c5.5-4.9,8.3-11.6,8.3-20h1.3c0,8.2-2.6,14.8-7.8,20.1c-5.2,5.2-12.2,7.8-20.9,7.8c-7.3,0-13.9-2.8-19.9-8.3
	c-7.1-6.5-10.6-15.1-10.6-25.6c0-11.4,3.5-20.7,10.4-27.9c6.1-6.2,12.9-9.3,20.6-9.3c7.1,0,12.9,2.1,17.6,6.2
	c6.9,6.1,10.3,16,10.3,29.9H367.7z M290.7,239.3v32.8c0,2.2,0.2,3.6,0.5,4.3c0.2,0.3,0.7,0.7,1.5,1c0.8,0.3,2.3,0.6,4.4,0.8
	c2.1,0.2,4,0.3,5.6,0.3v1.5h-43.6v-1.5c3.2,0,6-0.1,8.6-0.3c2.6-0.2,4.8-0.7,6.6-1.3c0.7-0.5,1-2.1,1-4.8v-85.7c0-1.4,0-2.6-0.1-3.6
	c-0.1-1-0.3-1.7-0.7-2.3c-0.8-1.1-1.5-1.7-2.1-2c-2-0.5-6.3-0.8-13.1-0.8v-1.5l31.3-2.8v57.8c0.7-4.4,2.2-8.5,4.7-12.6
	c3.2-5,6.9-7.7,11.3-8.2c0.9,0,1.8-0.1,2.9-0.2c1-0.1,1.8-0.2,2.2-0.2c7.6,0,13.3,2.1,17.1,6.2c3,3.4,4.6,7.5,4.6,12.4v43.3
	c0,2.2,0.2,3.6,0.5,4.3c0.2,0.3,0.8,0.7,1.6,1c0.9,0.3,2.4,0.6,4.7,0.8c2.3,0.2,4.6,0.3,6.9,0.3v1.5h-42.1v-1.5c1.7,0,3.8-0.1,6-0.3
	c2.3-0.2,4.3-0.7,6-1.3c0.7-0.5,1-2.1,1-4.8v-44.3c0-4.7-0.5-8.2-1.5-10.5c-1.5-3.6-4.4-5.4-8.6-5.4c-4.6,0-8.5,3-11.7,9
	C293.5,226,291.7,232.1,290.7,239.3z M255.5,245.2v7.5c0,2.5,0.1,4.9,0.2,7.2c0,7.6-0.9,12.8-2.6,15.7c-2.4,3.9-7,5.9-13.9,5.9
	c-6.5,0-11.3-1.6-14.4-4.7c-3-3.2-4.6-7.7-4.6-13.5v-46.3h-13.1v-1.5c8.9-2.2,15.6-7.4,20.1-15.6c3.6-6.6,5.5-13.9,5.5-22.1h2.8
	v34.4h18.8v4.7h-18.8v44.3c0,5.8,0.2,9.7,0.7,11.4c1.1,4.1,3.5,6.2,7.2,6.2c4.4,0,7.3-2.4,8.6-7.2c1-3.2,1.4-9.4,1.4-18.5v-7.8
	H255.5z"/>
<path class="st4" d="M435.6,311.6L420,363.3h-3.1l-24-62.8c-1.1-2.9-2.3-4.6-3.6-5.2c-1.3-0.6-4.6-0.9-9.8-0.9v-1.6h39.2v1.6
	c-2.5,0-5,0-7.6,0.1c-2.6,0.1-3.8,0.7-3.8,2c0,0.7,0.3,1.7,1,3.3l15.7,43.2l10.6-34.9l-2.2-7.6c-0.9-2.9-1.7-4.6-2.4-5.2
	c-0.7-0.6-2.4-0.9-5.1-0.9h-3.8v-1.6h36.2v1.6c-2.5,0-5,0-7.4,0.1c-2.4,0.1-3.7,0.7-3.7,2c0,0.7,0.3,1.8,0.8,3.5l12.2,41.9
	l11.1-32.1c1.3-3.8,2-6.8,2-8.8c0-4.4-3.6-6.6-10.9-6.6v-1.6h27.2v1.6c-4.1,0-7.3,1-9.6,3c-2.3,2-4.8,7.1-7.7,15.1l-17.3,50.7H451
	L435.6,311.6z M363.5,326.9c0-10.5-1-18.6-2.8-24.1c-1.9-5.5-4.9-8.3-9.1-8.3c-5.9,0-10.1,2.6-12.5,7.9c-2.4,5.3-3.6,13.5-3.6,24.6
	H363.5z M335.5,328.9c0,11.7,1.4,20.2,4.2,25.4c2.8,5.2,7,7.9,12.6,7.9c6,0,11.3-2,15.8-6.1c5.5-4.9,8.3-11.6,8.3-20h1.3
	c0,8.2-2.6,14.8-7.8,20.1c-5.2,5.2-12.2,7.8-20.9,7.8c-7.3,0-13.9-2.8-19.9-8.3c-7.1-6.5-10.6-15.1-10.6-25.6
	c0-11.4,3.5-20.7,10.4-27.9c6.1-6.2,12.9-9.3,20.6-9.3c7.1,0,12.9,2.1,17.6,6.2c6.9,6.1,10.3,16,10.3,29.9H335.5z M269.9,303.6
	c0-2.2-0.2-3.6-0.7-4.1c-0.8-1.1-1.5-1.8-2.1-2c-2-0.5-6.4-0.8-13.4-0.8v-1.5l31.5-2.4v20.7c0.4-4.5,2-8.6,4.6-12.6
	c3.6-5.4,8.1-8.2,13.5-8.2c2.1,0,4.3,0.7,6.7,2c2.4,1.4,4,3.1,4.8,5.1c0.8,2.1,1.2,3.9,1.2,5.5c0,4.4-1.8,7.3-5.4,9
	c-0.9,0.4-2,0.7-3.5,0.7c-2.2,0-4.1-0.8-5.6-2.3c-1.6-1.5-2.3-3.8-2.3-6.9c0-2,0.7-3.9,2.2-5.9c1.5-2,3.2-2.7,5.2-2.3
	c-0.7-2.3-2.6-3.4-5.8-3.4c-3.2,0-6.3,2.3-9.4,6.9c-4.1,5.9-6.2,13.5-6.2,22.8v30.5c0,2.2,0.2,3.6,0.5,4.3c0.2,0.3,0.7,0.7,1.5,1
	c2.3,0.8,7,1.1,14.2,1.1v1.5h-47.6V361c3.2,0,6-0.1,8.6-0.3c2.6-0.2,4.8-0.7,6.6-1.3c0.7-0.6,1-2.1,1-4.8V303.6z M187.2,363.9v-96.7
	c0-2.2-0.3-3.7-1-4.6c-0.7-0.9-1.3-1.4-2-1.6c-1.8-0.5-6-0.8-12.6-0.8v-1.5l30.8-2.8v57.5c0-5,1.6-9.7,4.8-14.1
	c3.2-4.4,7-6.6,11.3-6.6c9.8,0,17.5,4.4,23,13.2c4.4,7,6.5,14.3,6.5,22c0,9.9-2.8,18.4-8.4,25.4c-5.6,7-12,10.5-19.3,10.5
	c-6.6,0-11.6-0.8-14.8-2.5c-3.2-1.7-6.6-5.1-10.2-10.1l-7,12.6H187.2z M202.5,337.7c0,10.3,1.9,17.3,5.7,21.1
	c2.4,2.4,5.9,3.6,10.4,3.6c4.5,0,7.7-3.2,9.6-9.4c2-6.3,2.9-14.5,2.9-24.8c0-12.2-1.1-20.9-3.3-26.1c-2.2-5.1-5.3-7.7-9.3-7.7
	c-4.4,0-8,2.6-10.9,7.7c-3.5,6-5.2,14.3-5.2,24.9V337.7z"/>
<path class="st5" d="M405.9,386.1c0-2.2-0.2-3.6-0.7-4.1c-0.8-1.1-1.5-1.8-2.1-2c-2-0.5-6.4-0.8-13.4-0.8v-1.5l31.5-2.4V396
	c0.4-4.5,2-8.6,4.6-12.6c3.6-5.4,8.1-8.2,13.5-8.2c2.1,0,4.3,0.7,6.7,2c2.4,1.4,4,3.1,4.8,5.1c0.8,2.1,1.2,3.9,1.2,5.5
	c0,4.4-1.8,7.3-5.4,9c-0.9,0.4-2,0.7-3.5,0.7c-2.2,0-4.1-0.8-5.6-2.3c-1.6-1.5-2.3-3.8-2.3-6.9c0-2,0.7-3.9,2.2-5.9
	c1.5-2,3.2-2.7,5.2-2.3c-0.7-2.3-2.6-3.4-5.8-3.4c-3.2,0-6.3,2.3-9.4,6.9c-4.1,5.9-6.2,13.5-6.2,22.8v30.5c0,2.2,0.2,3.6,0.5,4.3
	c0.2,0.3,0.7,0.7,1.5,1c2.3,0.8,7,1.1,14.2,1.1v1.5h-47.6v-1.5c3.2,0,6-0.1,8.6-0.3c2.6-0.2,4.8-0.7,6.6-1.3c0.7-0.6,1-2.1,1-4.8
	V386.1z M356.8,397.6v-9.5c0-4.4-0.7-7.3-2.1-8.9c-1.4-1.5-4.4-2.3-8.9-2.3c-3.8,0-7,0.7-9.8,2.2c-2.8,1.4-4.7,3.4-5.5,5.8
	c0.4-0.1,1-0.2,1.6-0.2c2.1,0,3.8,0.8,5.1,2.4c1.3,1.6,2,3.5,2,5.5c0,2.4-0.8,4.4-2.5,5.9c-1.6,1.5-3.6,2.3-5.8,2.3
	c-1.4,0-2.7-0.4-3.8-1.1c-3.2-2.1-4.8-4.7-4.8-7.8c0-1.5,0.3-3.3,1-5.2c1.5-4.2,5.3-7.3,11.4-9.3c4.4-1.4,8.8-2.1,13.2-2.1
	c8,0,14.1,1.5,18.3,4.6c3.7,2.7,5.5,6.1,5.5,10.3v35.9c0,6.5,0.2,10.5,0.5,12c0.8,3.7,2.7,5.5,5.9,5.5c2.8,0,4.7-1.5,5.7-4.4
	c1-2.9,1.5-7.2,1.5-12.6c0-1.5,0-3-0.1-4.5c-0.1-1.5-0.1-3.1-0.1-4.7v-1.5h2v7.2c0,2.3,0.1,4.5,0.2,6.5c0,6.3-0.8,10.5-2.3,12.7
	c-2,2.7-6,4.1-12,4.1c-4.7,0-8.2-0.8-10.5-2.4c-2.7-2-4.5-5.2-5.4-9.9c-2.3,5.3-5.7,8.8-10.3,10.7c-2.7,1.1-6.4,1.6-10.9,1.6
	c-4.6,0-8.5-1.1-11.9-3.3c-4.7-2.9-7-7.4-7-13.4c0-5.9,2.3-10.8,6.8-14.9c4.5-3.9,10.1-6.1,16.6-6.7c6.5-0.5,10.9-1.4,13.2-2.6
	C355.7,404.4,356.8,401.7,356.8,397.6z M356.3,427.1v-21.8c-1.3,1.7-3.2,2.8-5.8,3.2c-2.6,0.4-5,0.7-7.4,1.1
	c-3.2,0.8-5.7,2.5-7.5,5.2c-2.2,3.3-3.3,7.9-3.3,13.8c0,6.3,0.6,10.6,1.9,12.9c1.3,2.3,3.2,3.4,6,3.4c4.1,0,7.9-1.7,11.2-5.2
	C354.7,436.2,356.3,432,356.3,427.1z M247.7,446.4v-96.7c0-2.2-0.3-3.7-1-4.6c-0.7-0.9-1.3-1.4-2-1.6c-1.8-0.5-6-0.8-12.6-0.8v-1.5
	l30.8-2.8v57.5c0-5,1.6-9.7,4.8-14.1c3.2-4.4,7-6.6,11.3-6.6c9.8,0,17.5,4.4,23,13.2c4.4,7,6.5,14.3,6.5,22c0,9.9-2.8,18.4-8.4,25.4
	c-5.6,7-12,10.5-19.3,10.5c-6.6,0-11.6-0.8-14.8-2.5c-3.2-1.7-6.6-5.1-10.2-10.1l-7,12.6H247.7z M263,420.2
	c0,10.3,1.9,17.3,5.7,21.1c2.4,2.4,5.9,3.6,10.4,3.6c4.5,0,7.7-3.2,9.6-9.4c2-6.3,2.9-14.5,2.9-24.8c0-12.2-1.1-20.9-3.3-26.1
	c-2.2-5.1-5.3-7.7-9.3-7.7c-4.4,0-8,2.6-10.9,7.7c-3.5,6-5.2,14.3-5.2,24.9V420.2z"/>
<path class="st5" d="M432,481.4c-1,0-2-0.2-2.8-0.5c-0.9-0.3-1.7-0.9-2.4-1.6l0.9-1.1c0.7,0.6,1.4,1.1,2,1.4
	c0.7,0.3,1.5,0.5,2.4,0.5c0.9,0,1.6-0.2,2.1-0.6c0.5-0.4,0.8-0.9,0.8-1.6v0c0-0.3,0-0.6-0.1-0.8c-0.1-0.2-0.3-0.5-0.5-0.7
	c-0.2-0.2-0.6-0.4-1-0.5c-0.4-0.2-1-0.3-1.7-0.5c-0.7-0.2-1.4-0.3-1.9-0.6c-0.5-0.2-1-0.5-1.4-0.8c-0.4-0.3-0.6-0.6-0.8-1
	c-0.2-0.4-0.3-0.9-0.3-1.4v0c0-0.5,0.1-1,0.3-1.4c0.2-0.4,0.5-0.8,0.9-1.1c0.4-0.3,0.8-0.6,1.3-0.7c0.5-0.2,1.1-0.3,1.7-0.3
	c0.9,0,1.8,0.1,2.5,0.4c0.7,0.3,1.4,0.7,2,1.2l-0.8,1.1c-0.6-0.5-1.2-0.8-1.8-1.1c-0.6-0.2-1.2-0.3-1.9-0.3c-0.8,0-1.5,0.2-2,0.6
	c-0.5,0.4-0.7,0.9-0.7,1.5v0c0,0.3,0,0.6,0.1,0.8c0.1,0.2,0.3,0.5,0.5,0.7c0.3,0.2,0.6,0.4,1.1,0.6c0.5,0.2,1,0.3,1.7,0.5
	c1.4,0.3,2.5,0.8,3.2,1.3c0.7,0.6,1,1.3,1,2.3v0c0,0.6-0.1,1.1-0.3,1.5c-0.2,0.4-0.5,0.8-0.9,1.1c-0.4,0.3-0.8,0.6-1.4,0.7
	C433.2,481.3,432.6,481.4,432,481.4 M413,468.3h1.5v7.7l7.4-7.7h1.9l-5.5,5.6l5.8,7.2h-1.8l-4.9-6.2l-2.7,2.8v3.5H413V468.3z
	 M397.1,468.3h1.4l8.1,10.3v-10.3h1.4v12.9h-1.2l-8.3-10.6v10.6h-1.4V468.3z M390.5,468.3h1.5v12.9h-1.5V468.3z M375.7,468.3h5.5
	c0.8,0,1.5,0.1,2.1,0.3c0.6,0.2,1.1,0.5,1.5,0.9c0.3,0.3,0.6,0.7,0.7,1.1c0.2,0.4,0.3,0.9,0.3,1.4v0c0,0.5-0.1,1-0.3,1.4
	c-0.2,0.4-0.4,0.8-0.7,1.1c-0.3,0.3-0.7,0.6-1.1,0.8c-0.4,0.2-0.9,0.3-1.4,0.4l4,5.3h-1.8l-3.7-5h0h-3.6v5h-1.5V468.3z M381.1,474.9
	c0.5,0,0.9-0.1,1.3-0.2c0.4-0.1,0.8-0.3,1-0.5c0.3-0.2,0.5-0.5,0.7-0.8c0.2-0.3,0.2-0.7,0.2-1.1v0c0-0.8-0.3-1.4-0.9-1.9
	c-0.6-0.4-1.4-0.7-2.4-0.7h-4v5.2H381.1z M359.9,468.3h4.5c1,0,1.9,0.2,2.8,0.5c0.8,0.3,1.6,0.8,2.2,1.3c0.6,0.6,1.1,1.3,1.4,2
	c0.3,0.8,0.5,1.6,0.5,2.5v0c0,0.9-0.2,1.8-0.5,2.5c-0.3,0.8-0.8,1.5-1.4,2c-0.6,0.6-1.3,1-2.2,1.4c-0.8,0.3-1.8,0.5-2.8,0.5h-4.5
	V468.3z M364.4,479.9c0.8,0,1.5-0.1,2.2-0.4c0.7-0.3,1.2-0.6,1.7-1.1c0.5-0.5,0.8-1,1.1-1.6c0.3-0.6,0.4-1.3,0.4-2v0
	c0-0.7-0.1-1.4-0.4-2c-0.3-0.6-0.6-1.2-1.1-1.6c-0.5-0.5-1-0.8-1.7-1.1c-0.7-0.3-1.4-0.4-2.2-0.4h-3v10.2H364.4z M347.5,479.4
	c-0.6,0.6-1.2,1.1-1.9,1.5c-0.7,0.3-1.5,0.5-2.3,0.5c-0.6,0-1.1-0.1-1.6-0.3c-0.5-0.2-0.9-0.4-1.3-0.7c-0.4-0.3-0.6-0.7-0.8-1.1
	c-0.2-0.4-0.3-0.9-0.3-1.5v0c0-0.9,0.3-1.6,0.8-2.2c0.5-0.6,1.3-1.1,2.3-1.5c-0.4-0.5-0.8-1-1-1.4c-0.2-0.4-0.3-0.9-0.3-1.4v0
	c0-0.4,0.1-0.8,0.2-1.2c0.2-0.4,0.4-0.7,0.7-1c0.3-0.3,0.6-0.5,1.1-0.7c0.4-0.2,0.9-0.2,1.4-0.2c0.5,0,0.9,0.1,1.3,0.2
	c0.4,0.2,0.7,0.4,1,0.6c0.3,0.3,0.5,0.6,0.7,0.9c0.2,0.3,0.2,0.7,0.2,1.1v0c0,0.8-0.3,1.5-0.8,2c-0.5,0.5-1.3,1-2.2,1.3l2.9,3
	c0.3-0.4,0.6-0.9,0.8-1.3c0.3-0.5,0.5-1,0.7-1.5l1.2,0.6c-0.3,0.6-0.6,1.2-0.9,1.7c-0.3,0.5-0.6,1-1,1.5l2.2,2.3l-1.1,0.8
	L347.5,479.4z M343.7,473.6c0.8-0.3,1.4-0.6,1.9-1c0.4-0.4,0.6-0.9,0.6-1.4v0c0-0.5-0.2-0.9-0.5-1.3c-0.3-0.3-0.8-0.5-1.3-0.5
	c-0.6,0-1.1,0.2-1.4,0.5c-0.4,0.4-0.5,0.8-0.5,1.3v0c0,0.2,0,0.4,0.1,0.5c0,0.2,0.1,0.4,0.2,0.5c0.1,0.2,0.2,0.4,0.4,0.6
	C343.3,473.1,343.5,473.3,343.7,473.6z M343.4,480.2c0.6,0,1.2-0.1,1.7-0.5c0.5-0.3,1-0.7,1.5-1.2l-3.4-3.5
	c-0.9,0.3-1.5,0.7-1.9,1.2c-0.4,0.5-0.6,1-0.6,1.6v0c0,0.3,0.1,0.7,0.2,1c0.1,0.3,0.3,0.6,0.6,0.8c0.2,0.2,0.5,0.4,0.9,0.5
	C342.6,480.1,343,480.2,343.4,480.2z M321,468.3h9.3v1.3h-7.8v4.4h7v1.3h-7v4.5h7.9v1.3H321V468.3z M307.3,468.3h9.3v1.3h-7.8v4.4h7
	v1.3h-7v4.5h7.9v1.3h-9.4V468.3z M293.9,468.3h9.2v1.3h-7.8v4.6h7v1.3h-7v5.6h-1.5V468.3z M280.4,468.3h9.2v1.3h-7.8v4.6h7v1.3h-7
	v5.6h-1.5V468.3z M269.4,481.4c-1,0-1.9-0.2-2.7-0.5c-0.8-0.4-1.5-0.8-2.1-1.4c-0.6-0.6-1-1.3-1.3-2.1c-0.3-0.8-0.5-1.6-0.5-2.5v0
	c0-0.9,0.2-1.7,0.5-2.5c0.3-0.8,0.8-1.5,1.3-2.1c0.6-0.6,1.3-1.1,2.1-1.5c0.8-0.4,1.7-0.5,2.7-0.5c1,0,1.9,0.2,2.7,0.5
	c0.8,0.4,1.5,0.8,2.1,1.4c0.6,0.6,1,1.3,1.3,2.1c0.3,0.8,0.5,1.6,0.5,2.5c0,0,0,0,0,0c0,0.9-0.2,1.7-0.5,2.5
	c-0.3,0.8-0.8,1.5-1.3,2.1c-0.6,0.6-1.3,1.1-2.1,1.5C271.3,481.3,270.4,481.4,269.4,481.4z M269.5,480.1c0.7,0,1.4-0.1,2-0.4
	c0.6-0.3,1.1-0.7,1.6-1.1c0.4-0.5,0.8-1,1-1.7c0.3-0.6,0.4-1.3,0.4-2.1v0c0-0.7-0.1-1.4-0.4-2.1c-0.3-0.6-0.6-1.2-1.1-1.7
	c-0.5-0.5-1-0.9-1.6-1.1c-0.6-0.3-1.3-0.4-2-0.4c-0.7,0-1.4,0.1-2,0.4c-0.6,0.3-1.1,0.7-1.6,1.1c-0.4,0.5-0.8,1-1,1.7
	c-0.3,0.6-0.4,1.3-0.4,2.1v0c0,0.7,0.1,1.4,0.4,2.1c0.3,0.6,0.6,1.2,1.1,1.7c0.5,0.5,1,0.9,1.6,1.1C268,480,268.7,480.1,269.5,480.1
	z M254.4,481.4c-0.9,0-1.8-0.2-2.6-0.5c-0.8-0.3-1.5-0.8-2-1.4c-0.6-0.6-1-1.3-1.4-2.1c-0.3-0.8-0.5-1.7-0.5-2.6v0
	c0-0.9,0.2-1.8,0.5-2.6c0.3-0.8,0.8-1.5,1.4-2.1c0.6-0.6,1.3-1.1,2.1-1.4c0.8-0.3,1.7-0.5,2.6-0.5c0.6,0,1.1,0,1.6,0.1
	c0.5,0.1,0.9,0.2,1.3,0.4c0.4,0.2,0.8,0.4,1.1,0.6c0.3,0.3,0.7,0.5,1,0.8l-1,1.1c-0.6-0.5-1.1-0.9-1.8-1.3c-0.6-0.3-1.4-0.5-2.3-0.5
	c-0.7,0-1.4,0.1-2,0.4c-0.6,0.3-1.1,0.6-1.6,1.1c-0.4,0.5-0.8,1-1,1.7c-0.3,0.6-0.4,1.3-0.4,2.1v0c0,0.7,0.1,1.4,0.4,2.1
	c0.3,0.6,0.6,1.2,1,1.7c0.4,0.5,1,0.9,1.6,1.1c0.6,0.3,1.3,0.4,2,0.4c0.9,0,1.6-0.2,2.3-0.5c0.6-0.3,1.3-0.8,1.9-1.4l1,0.9
	c-0.3,0.3-0.7,0.7-1,0.9c-0.4,0.3-0.8,0.5-1.2,0.7c-0.4,0.2-0.9,0.3-1.3,0.5C255.5,481.4,255,481.4,254.4,481.4z"/>
<rect x="306.2" y="456.4" class="st4" width="71.8" height="0.6"/>
</svg>
